{"glyphs":{"0":{"ha":710,"x_min":0,"x_max":700,"o":"m 399 1001 l 420 1001 q 678 817 617 1001 q 700 627 700 734 q 602 171 700 372 q 87 76 98 76 q 0 369 0 157 q 92 827 0 623 q 399 1001 198 1001 m 252 369 l 252 339 q 323 214 252 214 q 448 616 427 214 l 448 675 q 380 792 448 792 q 260 486 283 792 q 252 369 252 444 m 572 130 l 575 125 q 304 0 478 0 l 288 0 q 122 46 177 0 q 572 130 122 52 z "},"1":{"ha":542,"x_min":0,"x_max":543,"o":"m 336 985 l 543 985 l 543 982 q 467 288 543 947 l 209 239 l 206 244 q 244 600 244 581 q 38 491 140 525 l 3 480 q 0 483 3 483 q 33 732 25 732 q 307 936 226 798 l 336 985 m 461 244 q 464 241 461 241 q 434 0 439 26 l 184 0 l 179 3 q 206 201 199 191 l 461 244 z "},"2":{"ha":777,"x_min":0,"x_max":770,"o":"m 453 985 l 472 985 q 746 849 689 985 q 770 738 770 795 l 770 732 q 637 445 770 570 q 209 363 629 445 l 206 369 l 448 575 q 515 697 515 643 q 442 770 507 770 q 339 629 366 770 q 336 627 336 629 q 87 654 109 648 q 209 906 128 839 q 453 985 298 985 m 570 385 l 570 382 q 407 250 431 275 l 716 250 q 724 241 720 250 q 694 0 699 0 l 5 0 q 0 5 0 0 q 146 307 41 189 q 570 385 168 315 z "},"3":{"ha":715,"x_min":0,"x_max":705,"o":"m 418 1001 l 429 1001 q 694 852 646 1001 q 705 784 705 817 l 705 770 q 656 621 705 684 q 301 553 416 572 l 298 559 q 317 643 311 643 q 361 637 349 637 q 450 716 420 637 l 453 743 q 393 803 453 803 q 298 681 323 803 q 293 675 298 675 q 62 730 67 722 l 62 732 q 225 958 113 890 q 418 1001 309 1001 m 594 553 q 703 369 703 501 q 548 60 703 191 q 336 0 456 0 l 315 0 q 35 155 102 0 q 0 293 0 254 q 258 336 5 298 q 315 201 269 201 q 342 195 315 195 q 434 279 406 195 q 442 334 442 299 l 442 355 q 369 434 442 423 l 366 434 q 277 412 347 434 q 274 415 277 415 q 298 502 284 502 q 594 553 585 553 z "},"4":{"ha":767,"x_min":0,"x_max":754,"o":"m 502 985 l 716 985 l 716 982 q 689 754 695 754 l 244 667 q 241 670 244 670 q 502 985 283 726 m 684 692 q 686 689 684 689 q 656 412 662 490 l 749 412 q 754 407 754 412 q 727 174 732 201 l 629 174 q 605 0 612 0 l 391 0 q 385 5 385 0 l 401 174 l 5 174 l 0 176 q 30 418 26 418 q 190 602 173 592 l 684 692 m 269 412 l 429 412 l 453 632 q 269 412 450 632 z "},"5":{"ha":743,"x_min":0,"x_max":738,"o":"m 732 985 l 738 982 q 719 925 738 925 q 144 817 708 925 l 141 822 q 184 985 179 979 l 732 985 m 722 860 q 724 857 722 857 q 705 741 712 741 l 353 741 l 331 654 l 334 654 q 458 681 410 681 q 700 494 637 681 q 711 410 708 463 q 567 81 711 223 q 331 0 473 0 l 317 0 q 27 165 97 0 q 0 290 8 225 q 260 326 16 296 l 263 320 l 263 307 q 345 195 263 195 q 450 350 431 195 l 450 393 q 382 480 440 480 l 358 480 q 258 415 316 480 l 255 415 q 49 453 49 447 q 125 751 119 739 q 722 860 684 854 z "},"6":{"ha":715,"x_min":0,"x_max":711,"o":"m 564 979 q 673 882 631 954 q 711 743 711 800 q 456 705 711 738 q 423 800 456 770 q 401 806 401 802 q 285 618 316 806 l 285 616 l 288 616 q 453 675 358 675 q 675 477 612 675 q 684 393 684 431 q 480 30 684 149 q 331 0 403 0 l 312 0 q 43 152 115 0 q 0 372 0 253 q 98 814 0 614 q 195 911 161 911 q 564 979 526 971 m 255 304 q 312 203 255 229 q 336 198 318 201 q 437 328 414 198 q 439 374 439 360 q 385 472 429 472 q 363 477 385 477 q 255 328 273 477 l 255 304 z "},"7":{"ha":705,"x_min":0,"x_max":705,"o":"m 33 968 l 700 968 q 705 963 705 968 q 675 757 686 757 q 567 640 626 715 q 442 439 488 532 q 382 418 442 418 q 174 377 342 407 l 171 382 q 307 621 212 478 l 374 713 l 5 713 q 0 719 0 713 q 33 968 24 968 m 410 374 q 412 372 410 372 q 326 95 355 239 q 304 0 309 0 l 60 0 q 54 5 54 0 q 149 328 98 205 l 410 374 z "},"8":{"ha":710,"x_min":0,"x_max":708,"o":"m 401 1001 l 415 1001 q 686 868 621 1001 q 708 762 708 817 q 654 621 696 621 l 122 521 l 122 524 l 141 540 q 71 703 71 595 q 269 979 71 888 q 401 1001 332 1001 m 312 705 l 312 700 q 380 629 319 629 q 461 730 461 642 l 461 732 q 393 806 461 806 q 312 705 323 806 m 616 562 l 618 556 q 600 543 604 543 l 600 537 q 686 358 686 462 l 686 331 q 562 71 686 188 q 326 0 467 0 l 304 0 q 24 138 82 0 q 0 255 0 197 l 0 271 q 57 458 0 385 l 616 562 m 255 293 q 331 195 255 213 q 426 290 391 195 q 431 328 431 311 l 431 350 q 374 437 431 411 q 353 439 364 439 q 258 323 281 439 q 255 293 255 313 z "},"9":{"ha":720,"x_min":0,"x_max":711,"o":"m 385 1001 l 401 1001 q 673 838 605 1001 q 689 776 689 808 l 456 732 q 377 803 428 803 q 285 716 315 803 q 244 692 285 692 l 35 651 q 33 659 33 656 q 117 876 33 749 q 385 1001 218 1001 m 703 719 q 711 643 711 709 l 711 616 q 578 133 711 323 q 298 0 460 0 l 277 0 q 35 130 98 0 q 0 258 0 218 q 258 296 7 263 l 260 290 l 260 277 q 296 198 260 217 q 312 195 312 198 q 429 385 397 195 l 426 385 q 260 326 357 326 q 41 513 104 326 q 30 591 30 554 q 193 624 30 598 q 271 640 197 626 l 274 635 l 274 632 q 331 526 274 545 q 350 524 342 524 q 458 673 439 524 q 703 719 494 681 z "}," ":{"ha":815,"x_min":0,"x_max":0,"o":""}," ":{"ha":815,"x_min":0,"x_max":0,"o":""},"!":{"ha":370,"x_min":0,"x_max":366,"o":"m 109 968 l 361 968 l 366 966 q 307 583 342 712 q 241 293 250 311 l 73 293 q 68 298 68 293 l 68 423 l 71 439 q 68 442 71 442 l 71 456 l 71 648 q 109 968 98 968 m 33 266 l 274 266 q 279 260 279 265 q 250 33 259 33 q 65 0 81 0 l 0 0 l 0 3 q 33 266 22 266 z "},"\"":{"ha":671,"x_min":0,"x_max":667,"o":"m 269 1158 q 320 1015 275 1158 q 203 922 225 968 q 193 895 193 905 l 296 895 q 301 890 301 895 q 282 765 290 765 q 16 713 260 760 l 14 719 q 49 947 14 797 q 203 1126 96 1066 q 269 1158 257 1158 m 667 1156 l 667 1153 q 618 827 640 827 q 442 795 611 827 l 439 800 q 477 860 474 831 l 374 860 q 369 865 369 860 q 401 1156 396 1135 l 667 1156 m 608 789 l 608 784 q 529 673 608 755 q 399 597 440 606 q 350 741 372 667 q 608 789 370 746 m 279 730 l 282 724 q 266 600 272 600 l 5 600 l 0 602 q 14 681 7 681 q 279 730 170 708 z "},"#":{"ha":753,"x_min":0,"x_max":754,"o":"m 290 1001 l 469 1001 l 475 998 q 412 773 412 782 l 496 773 q 564 1001 555 988 l 741 1001 q 746 993 746 1001 q 686 776 686 785 l 686 773 l 749 773 q 754 765 754 773 q 727 562 736 562 l 629 562 q 591 437 621 562 l 713 437 l 719 434 q 700 372 719 372 q 3 239 155 266 l 0 244 q 22 437 16 410 l 125 437 q 163 559 132 443 l 157 562 l 41 562 q 35 567 35 562 q 62 773 54 773 l 220 773 q 282 990 227 773 q 290 1001 288 1001 m 317 437 l 401 437 l 437 559 l 431 562 l 355 562 q 317 437 348 562 m 703 328 l 705 323 q 689 222 699 222 l 529 222 q 464 0 469 0 l 285 0 q 279 5 279 0 l 342 222 l 255 222 q 190 0 198 12 l 8 0 l 8 3 q 71 212 61 212 l 703 328 z "},"$":{"ha":734,"x_min":0,"x_max":735,"o":"m 388 1120 l 491 1120 l 496 1118 q 491 1063 491 1072 q 646 1009 580 1054 q 735 803 735 924 q 499 760 728 800 q 467 841 477 840 q 453 708 453 734 q 665 589 585 670 l 665 586 q 285 510 665 577 q 239 499 285 507 q 76 713 76 564 l 76 746 q 244 1028 76 924 q 377 1063 333 1063 q 388 1120 382 1120 m 320 792 l 320 789 q 342 749 320 764 l 345 749 l 345 751 q 355 852 345 772 l 353 852 q 320 792 320 833 m 692 534 q 713 431 713 489 q 545 122 713 245 q 391 73 467 73 q 380 68 391 71 q 369 0 376 0 l 266 0 l 260 3 q 269 73 263 13 l 266 73 q 90 144 179 73 q 0 385 0 232 q 255 423 6 391 l 258 418 q 290 296 258 323 l 293 296 q 317 467 310 467 q 692 534 671 534 m 420 429 l 404 282 q 464 339 435 282 q 469 366 469 351 q 426 429 469 405 l 420 429 z "},"%":{"ha":993,"x_min":0,"x_max":987,"o":"m 258 1034 l 271 1034 q 458 890 413 1034 q 469 811 467 869 q 420 656 457 656 l 38 586 q 0 732 0 644 q 122 993 0 897 q 258 1034 186 1034 m 716 1034 l 857 1034 q 863 1028 863 1033 q 675 705 687 720 q 513 675 668 705 q 662 944 513 685 q 716 1034 712 1034 m 184 719 q 217 651 184 651 l 225 651 q 282 811 273 651 l 282 825 q 250 887 282 887 l 244 887 q 184 719 193 887 m 637 643 q 640 640 637 640 q 274 0 286 18 l 127 0 q 404 491 145 43 q 480 613 469 613 q 637 643 500 618 m 396 597 l 396 594 q 206 505 319 505 q 87 540 132 505 q 396 597 368 597 m 781 532 q 977 393 925 532 q 987 312 987 340 q 830 24 987 109 q 738 3 787 3 l 711 3 q 532 133 581 3 q 518 225 518 182 q 632 483 518 387 q 781 532 702 532 m 703 220 q 741 146 703 146 l 743 146 q 800 288 788 146 l 800 323 q 770 382 800 382 l 760 382 q 705 250 718 382 q 703 220 703 231 z "},"&":{"ha":892,"x_min":0,"x_max":890,"o":"m 469 1004 l 480 1004 l 480 998 q 323 968 422 990 l 323 971 q 469 1004 374 1004 m 651 960 q 730 817 730 899 l 730 795 q 551 534 730 649 l 551 529 q 627 439 574 494 l 629 439 l 659 513 q 857 456 850 464 q 779 279 823 358 l 890 187 l 890 184 q 732 0 869 155 l 730 0 q 610 92 684 30 q 296 3 484 3 q 19 152 89 3 q 0 252 0 211 q 217 567 0 449 q 171 730 171 650 q 220 882 171 817 q 651 960 509 936 m 401 762 q 437 678 401 737 q 518 779 518 733 l 518 787 q 469 827 518 819 q 401 762 401 818 m 255 296 q 339 209 269 209 q 353 206 339 206 q 458 241 389 206 l 458 244 l 323 401 q 255 296 255 352 z "},"'":{"ha":317,"x_min":0,"x_max":317,"o":"m 269 1162 q 317 1021 275 1162 q 244 975 317 1018 q 79 937 244 962 q 46 929 79 935 l 43 935 q 195 1127 83 1057 q 269 1162 260 1162 m 193 916 l 195 910 l 190 899 l 296 899 l 301 897 q 266 604 271 621 l 5 604 q 0 609 0 604 q 35 886 25 864 l 193 916 z "},"(":{"ha":437,"x_min":0,"x_max":437,"o":"m 266 1039 l 431 1039 l 437 1036 q 312 746 374 911 l 76 700 l 73 705 q 212 968 125 837 q 266 1039 261 1039 m 288 681 q 290 678 288 678 q 231 285 231 465 l 231 255 q 274 -79 231 92 l 269 -81 l 84 -81 q 19 114 57 -43 q 0 309 0 217 q 52 637 0 477 l 288 681 z "},")":{"ha":384,"x_min":0,"x_max":385,"o":"m 87 1039 l 252 1039 q 334 863 277 1011 q 339 836 339 841 q 136 795 321 830 q 81 1036 117 906 l 87 1039 m 358 773 q 385 551 385 660 q 190 -81 385 214 l 5 -81 l 0 -79 q 152 562 152 248 l 152 605 q 144 732 152 664 q 358 773 149 738 z "},"*":{"ha":465,"x_min":0,"x_max":461,"o":"m 184 1161 l 331 1161 l 336 1158 q 307 1050 316 1050 q 182 1028 193 1028 l 179 1034 l 179 1156 q 184 1161 180 1161 m 71 1072 q 152 1023 143 1031 q 43 1001 143 1017 l 41 1006 q 71 1072 63 1064 m 437 1042 q 461 901 442 1024 q 328 868 441 890 q 401 762 335 861 l 401 760 q 266 651 345 711 q 217 784 258 651 q 136 651 140 652 q 22 760 64 714 l 22 762 q 125 871 86 832 l 125 873 q 0 901 0 894 q 46 971 18 971 l 301 1017 q 307 1006 303 1006 q 437 1042 328 1027 z "},"+":{"ha":652,"x_min":0,"x_max":651,"o":"m 464 732 q 469 727 469 732 l 445 488 l 651 488 l 651 486 q 632 336 640 336 q 127 244 165 244 l 5 244 l 0 247 q 30 488 24 474 l 236 488 q 263 732 244 583 l 464 732 m 627 290 q 629 282 629 285 q 621 244 629 244 l 418 244 q 388 3 393 22 l 382 0 l 190 0 l 182 5 q 209 214 203 214 q 627 290 298 228 z "},",":{"ha":321,"x_min":0,"x_max":320,"o":"m 212 293 l 315 293 l 320 290 q 239 -119 290 -64 q 65 -258 172 -216 l 49 -258 q 0 -122 43 -258 q 127 0 127 -56 l 24 0 q 19 5 19 0 q 49 263 43 231 q 212 293 186 293 z "},"-":{"ha":384,"x_min":0,"x_max":374,"o":"m 369 598 q 374 593 374 597 q 358 476 366 476 l 3 408 q 0 411 3 411 q 24 598 19 589 l 369 598 m 353 416 l 355 411 q 345 359 352 359 l 71 359 l 71 365 q 353 416 165 381 z "},"­":{"ha":384,"x_min":0,"x_max":374,"o":"m 369 598 q 374 593 374 597 q 358 476 366 476 l 3 408 q 0 411 3 411 q 24 598 19 589 l 369 598 m 353 416 l 355 411 q 345 359 352 359 l 71 359 l 71 365 q 353 416 165 381 z "},".":{"ha":307,"x_min":0,"x_max":301,"o":"m 296 296 q 301 290 301 295 q 269 0 274 27 l 5 0 l 0 3 q 35 296 30 274 l 296 296 z "},"/":{"ha":459,"x_min":0,"x_max":461,"o":"m 456 1001 q 461 996 461 1000 q 293 469 298 481 l 144 439 q 141 448 141 445 q 317 1001 304 966 l 456 1001 m 277 420 q 144 0 263 365 l 5 0 l 0 3 q 127 396 119 384 q 277 420 264 420 z "},":":{"ha":355,"x_min":0,"x_max":347,"o":"m 342 713 q 347 708 347 713 l 323 496 q 52 442 323 490 l 49 448 q 81 713 76 709 l 342 713 m 317 458 q 320 456 317 456 q 309 415 317 415 l 109 415 l 109 420 q 317 458 120 420 m 296 296 l 301 293 q 266 0 271 0 l 5 0 q 0 5 0 0 q 35 296 30 287 l 296 296 z "},";":{"ha":374,"x_min":0,"x_max":363,"o":"m 100 715 l 358 715 q 363 709 363 714 q 350 650 363 650 q 84 601 103 601 l 84 604 q 100 715 92 715 m 350 609 l 353 604 q 331 416 334 424 l 68 416 l 62 419 q 81 560 76 550 q 350 609 86 560 m 312 294 q 317 289 317 294 q 236 -118 290 -63 q 49 -264 175 -213 q 0 -121 14 -176 l 0 -118 q 125 -12 96 -77 q 127 -1 125 -6 l 122 1 l 22 1 l 16 4 q 52 294 46 272 l 312 294 z "},";":{"ha":374,"x_min":0,"x_max":363,"o":"m 100 715 l 358 715 q 363 709 363 714 q 350 650 363 650 q 84 601 103 601 l 84 604 q 100 715 92 715 m 350 609 l 353 604 q 331 416 334 424 l 68 416 l 62 419 q 81 560 76 550 q 350 609 86 560 m 312 294 q 317 289 317 294 q 236 -118 290 -63 q 49 -264 175 -213 q 0 -121 14 -176 l 0 -118 q 125 -12 96 -77 q 127 -1 125 -6 l 122 1 l 22 1 l 16 4 q 52 294 46 272 l 312 294 z "},"<":{"ha":710,"x_min":0,"x_max":708,"o":"m 703 838 l 708 838 q 692 735 699 735 q 336 667 477 692 l 336 673 l 703 838 m 689 686 l 689 684 q 670 570 683 570 q 317 420 665 570 q 643 263 353 399 l 643 258 q 610 0 619 0 l 608 0 q 0 315 57 281 q 27 529 20 529 q 212 600 174 600 q 689 686 608 673 z "},"=":{"ha":690,"x_min":0,"x_max":686,"o":"m 681 556 q 686 551 686 555 q 659 312 662 317 l 41 312 q 35 317 35 312 q 62 556 57 530 l 681 556 m 646 244 q 651 236 651 244 q 632 98 640 98 q 111 0 161 5 l 5 0 l 0 3 q 30 244 24 236 l 646 244 m 629 57 q 632 54 629 54 q 621 0 628 0 l 342 0 l 342 5 l 629 57 z "},">":{"ha":715,"x_min":0,"x_max":708,"o":"m 95 841 l 203 787 l 203 784 q 87 760 203 777 l 84 765 q 95 841 90 831 m 279 746 q 708 524 649 558 q 684 312 686 320 q 3 0 35 11 q 0 3 3 3 q 30 263 27 255 q 391 420 388 415 q 65 578 115 548 l 65 581 q 84 711 73 711 q 279 746 106 713 z "},"?":{"ha":652,"x_min":0,"x_max":640,"o":"m 366 987 q 627 827 559 987 q 640 751 640 785 l 640 727 q 613 635 635 635 q 274 572 314 578 l 274 575 q 382 694 382 667 l 382 713 q 334 751 382 751 q 244 637 266 751 q 233 616 239 616 q 0 654 0 646 q 100 882 31 808 q 366 987 194 987 m 589 578 l 589 572 q 423 412 530 500 q 380 293 380 355 l 146 293 l 141 296 q 174 453 152 404 q 222 513 204 513 q 589 578 560 575 m 136 266 l 380 266 l 385 263 q 353 0 357 0 l 109 0 q 103 5 103 0 q 136 266 128 266 z "},"@":{"ha":882,"x_min":0,"x_max":882,"o":"m 518 1120 l 534 1120 q 860 871 771 1120 q 882 724 882 791 q 746 331 882 494 l 231 236 q 149 431 149 300 q 309 860 149 669 q 450 925 380 925 q 556 863 519 925 l 562 863 q 578 903 568 903 l 705 903 q 521 987 637 987 l 510 987 q 149 686 264 987 q 114 461 114 565 q 182 228 114 327 q 54 201 182 222 q 0 442 0 315 l 0 477 q 217 1001 0 770 q 518 1120 355 1120 m 708 895 q 578 353 578 367 q 722 496 646 353 q 765 711 765 596 q 713 895 765 811 l 708 895 m 296 426 q 345 336 296 348 l 347 336 q 502 684 446 336 l 502 719 q 453 784 502 777 q 296 448 345 784 l 296 426 m 694 285 l 694 282 q 529 206 606 206 q 461 239 486 206 q 665 279 461 245 q 694 285 688 285 m 708 239 l 841 239 q 846 233 846 238 q 705 95 767 134 q 420 0 558 0 l 374 0 q 81 155 208 0 l 73 168 q 212 195 73 174 q 399 119 287 119 l 412 119 q 697 236 554 119 q 708 239 702 239 m 385 228 l 385 222 q 307 206 347 206 l 298 206 l 298 214 l 301 214 l 385 228 z "},"A":{"ha":825,"x_min":0,"x_max":857,"o":"m 486 971 l 703 971 q 749 765 709 971 q 241 637 441 686 q 239 640 241 640 l 372 968 q 486 971 444 971 m 724 689 l 857 3 l 852 0 l 624 0 q 605 100 614 0 q 591 155 595 155 l 339 155 q 279 0 288 0 l 5 0 q 0 8 0 0 q 252 586 236 555 q 724 689 714 689 m 521 643 q 429 393 515 623 l 562 393 q 524 643 553 431 l 521 643 z "},"B":{"ha":739,"x_min":0,"x_max":811,"o":"m 545 971 q 776 879 728 971 q 811 743 811 827 l 811 741 q 808 738 811 738 q 811 735 808 735 q 692 578 811 644 q 244 461 663 562 q 46 410 239 458 q 43 412 46 412 q 109 971 103 964 l 545 971 m 361 743 l 345 605 l 445 605 q 532 692 532 605 q 469 743 532 743 l 361 743 m 618 499 q 746 439 669 499 q 800 326 800 385 q 635 35 800 132 q 404 0 526 0 l 5 0 q 0 5 0 0 q 41 358 35 358 q 618 499 608 499 m 320 391 l 320 388 q 304 239 320 360 l 426 239 q 524 331 524 239 q 426 391 524 391 l 320 391 z "},"C":{"ha":825,"x_min":0,"x_max":868,"o":"m 526 1050 l 586 1050 q 779 998 691 1050 l 779 996 l 100 825 l 98 825 l 98 827 q 526 1050 239 1050 m 735 909 q 803 854 785 873 q 868 665 868 779 q 865 600 865 604 l 860 597 l 578 597 q 564 665 572 597 q 456 749 532 749 q 288 540 324 749 q 279 437 279 463 l 279 396 q 393 252 279 252 q 529 350 486 252 l 534 353 l 792 353 l 798 350 q 716 171 785 289 q 377 0 602 0 q 62 155 143 0 q 0 388 0 260 l 0 420 q 73 751 0 595 q 735 909 80 751 z "},"D":{"ha":815,"x_min":0,"x_max":822,"o":"m 111 971 l 467 971 q 754 852 685 971 q 819 648 819 748 q 545 578 819 644 q 534 643 541 584 q 448 716 505 716 q 401 722 448 721 l 355 722 q 331 524 336 524 l 52 453 l 49 458 q 106 968 103 958 l 111 971 m 819 589 l 822 583 l 822 575 q 765 258 822 418 q 363 0 652 0 l 5 0 q 0 5 0 0 q 46 404 40 404 l 326 472 q 328 469 326 469 l 304 250 l 328 250 q 483 296 460 250 q 537 486 517 326 q 553 526 537 526 q 819 589 789 583 z "},"E":{"ha":724,"x_min":0,"x_max":795,"o":"m 111 971 l 255 971 l 255 966 q 100 930 114 930 q 111 971 103 971 m 572 971 l 789 971 q 795 963 795 971 q 765 732 774 732 l 358 732 q 345 624 347 635 l 722 624 q 727 618 727 623 q 703 396 711 448 l 320 396 q 304 250 315 332 l 724 250 l 730 247 q 700 0 705 19 l 5 0 q 0 5 0 0 q 95 860 76 724 q 572 971 540 968 z "},"F":{"ha":739,"x_min":0,"x_max":741,"o":"m 109 971 l 735 971 q 741 966 741 970 q 711 732 719 732 l 355 732 q 342 608 342 623 l 643 608 q 648 602 648 607 q 624 382 648 578 l 320 382 q 301 231 313 382 q 279 117 289 117 l 3 49 q 0 52 3 52 l 103 968 l 109 971 m 320 79 q 307 0 316 0 l 35 0 l 35 11 q 317 81 35 19 q 320 79 320 81 z "},"G":{"ha":863,"x_min":0,"x_max":863,"o":"m 467 971 l 551 971 q 803 857 736 971 q 54 670 803 852 l 54 673 q 467 971 189 971 m 836 825 q 863 703 863 743 l 591 646 l 575 694 q 529 749 575 713 q 678 787 529 755 q 836 825 709 798 m 355 711 l 358 705 q 293 567 318 673 q 279 431 279 489 l 279 418 q 372 247 279 277 q 407 241 396 241 l 437 241 q 578 293 491 241 q 583 353 578 304 l 420 353 l 420 355 q 448 583 440 583 l 852 583 l 857 581 l 808 155 q 420 0 604 0 l 353 0 q 27 228 113 0 q 0 391 0 319 l 0 415 q 30 629 0 529 q 355 711 35 635 z "},"H":{"ha":897,"x_min":0,"x_max":898,"o":"m 377 971 q 382 966 382 970 q 347 646 355 705 l 586 646 l 586 648 q 621 968 608 868 l 627 971 l 892 971 q 898 966 898 970 q 865 703 873 703 l 57 502 l 54 507 q 109 971 103 965 l 377 971 m 860 643 l 863 637 q 792 3 817 210 l 787 0 l 521 0 q 515 5 515 0 q 556 377 518 56 l 317 377 q 274 0 279 0 l 5 0 q 0 5 0 0 q 49 448 33 322 q 860 643 180 483 z "},"I":{"ha":350,"x_min":0,"x_max":347,"o":"m 76 955 l 342 955 q 347 949 347 954 q 285 391 288 397 q 3 320 281 388 q 0 323 3 323 q 71 952 65 920 l 76 955 m 331 358 l 334 353 q 293 0 298 9 l 19 0 l 19 3 q 54 293 45 293 l 331 358 z "},"J":{"ha":743,"x_min":0,"x_max":743,"o":"m 472 971 l 738 971 q 743 966 743 970 q 651 241 681 342 q 613 201 643 201 q 73 65 606 198 q 3 236 28 102 q 0 271 3 262 q 3 274 0 274 l 0 290 q 8 353 0 353 l 274 393 q 271 312 271 339 l 271 301 q 317 239 271 246 l 320 239 q 401 382 389 239 q 467 968 461 943 l 472 971 m 651 176 q 654 174 651 174 q 472 16 603 72 q 374 0 415 0 l 317 0 q 144 52 206 0 q 651 176 163 60 z "},"K":{"ha":964,"x_min":0,"x_max":963,"o":"m 114 971 l 380 971 q 385 966 385 970 q 350 654 353 663 l 353 654 q 624 971 612 962 l 949 971 q 963 939 958 971 l 643 597 q 887 3 887 9 l 882 0 l 553 0 q 521 87 545 0 q 429 369 437 334 l 426 369 q 304 233 304 242 q 274 0 282 0 l 5 0 l 0 3 q 109 968 103 936 l 114 971 z "},"L":{"ha":690,"x_min":0,"x_max":689,"o":"m 426 971 q 431 966 431 970 q 412 817 418 817 l 133 746 l 130 751 q 157 971 152 964 l 426 971 m 358 751 q 361 749 358 749 q 307 269 358 738 l 689 269 l 689 266 q 656 0 666 0 l 5 0 q 0 5 0 0 q 76 686 71 665 l 358 751 z "},"M":{"ha":1000,"x_min":0,"x_max":998,"o":"m 418 971 q 445 762 428 971 q 469 548 448 762 q 271 496 469 543 q 263 564 269 502 l 260 564 q 241 488 256 488 l 14 431 q 11 434 14 434 q 73 971 68 954 l 418 971 m 993 971 q 998 966 998 970 q 963 667 968 675 q 513 556 955 667 l 513 559 q 648 971 637 951 l 993 971 m 958 605 q 890 0 895 0 l 665 0 q 659 5 659 0 q 722 553 716 553 q 958 608 948 608 l 958 605 m 711 548 l 711 545 q 532 3 545 39 l 526 0 l 328 0 q 312 122 321 0 q 279 412 309 127 l 277 412 q 231 8 236 8 l 5 8 q 0 14 0 8 q 43 391 38 378 q 475 494 108 404 l 477 488 l 477 469 l 483 469 q 537 507 483 507 q 711 548 691 548 z "},"N":{"ha":946,"x_min":0,"x_max":947,"o":"m 404 971 q 491 798 410 969 l 575 613 q 106 494 566 608 l 103 499 q 157 971 152 971 l 404 971 m 941 971 q 947 966 947 970 q 914 694 919 694 q 648 629 906 694 q 646 632 648 632 q 686 971 681 960 l 941 971 m 863 635 l 863 632 q 792 3 860 623 l 787 0 l 540 0 q 415 260 528 9 q 317 464 410 262 q 296 290 311 464 q 260 0 266 31 l 5 0 q 0 5 0 0 q 49 442 43 425 q 551 562 543 562 q 581 499 567 535 l 583 499 q 602 575 583 575 q 863 635 845 635 z "},"O":{"ha":868,"x_min":0,"x_max":868,"o":"m 469 971 l 526 971 q 836 776 758 971 q 868 581 868 695 l 868 578 q 849 464 868 464 l 572 393 l 570 399 q 589 562 589 494 l 589 570 q 502 724 589 694 q 469 730 483 730 l 453 730 q 285 502 318 730 q 279 418 279 453 l 279 404 q 288 326 279 370 q 16 255 283 320 q 0 380 0 302 l 0 404 q 157 854 0 671 q 334 955 267 955 q 469 971 395 971 m 849 415 q 852 412 849 412 q 711 117 804 202 q 412 0 606 0 l 355 0 q 119 68 227 0 q 27 217 39 157 q 309 285 300 285 q 401 239 342 239 l 412 239 q 553 345 507 239 l 849 415 z "},"P":{"ha":614,"x_min":0,"x_max":784,"o":"m 483 971 q 703 922 651 971 q 784 727 784 857 l 784 705 q 637 399 784 509 q 442 347 556 347 l 317 347 q 279 3 282 7 l 274 0 l 5 0 l 0 3 q 109 971 103 939 l 483 971 m 361 743 q 342 572 361 719 l 385 572 q 510 670 510 572 q 420 743 510 743 l 361 743 z "},"Q":{"ha":868,"x_min":0,"x_max":868,"o":"m 486 967 q 762 883 611 967 l 762 880 q 68 704 751 875 l 65 709 q 187 875 88 777 q 396 959 274 940 q 486 967 422 964 m 808 823 q 868 590 868 730 l 868 571 q 749 156 868 326 l 749 151 q 852 83 816 97 l 852 80 q 749 -115 844 50 q 581 18 692 -86 q 377 -7 519 -7 q 71 121 178 -7 q 0 384 0 231 l 0 389 q 54 644 14 644 l 808 823 m 279 403 q 410 232 279 232 q 342 275 399 245 l 342 281 q 410 408 401 408 q 548 327 460 408 q 589 560 589 431 q 458 726 589 726 q 285 490 316 726 l 279 403 z "},"R":{"ha":825,"x_min":0,"x_max":819,"o":"m 502 971 q 779 879 740 971 q 819 738 819 820 q 673 450 819 551 q 629 429 637 429 q 711 315 675 393 q 719 285 719 290 q 429 212 714 279 q 361 363 379 350 q 309 380 338 380 l 309 377 q 282 174 290 174 q 0 106 16 106 q 98 971 92 947 l 502 971 m 350 743 l 334 594 l 420 594 q 534 686 534 594 l 534 689 q 458 743 534 743 l 350 743 m 732 244 q 811 5 811 19 l 811 0 l 505 0 q 442 174 491 14 l 442 176 l 732 244 m 326 144 q 328 141 326 141 q 309 8 315 8 l 38 8 l 33 11 q 52 79 37 79 q 326 144 317 144 z "},"S":{"ha":767,"x_min":0,"x_max":768,"o":"m 486 971 l 505 971 q 730 868 675 971 q 768 705 768 801 l 768 659 q 762 654 768 654 l 507 654 q 502 659 502 654 l 502 662 q 410 776 502 776 q 334 722 334 768 l 334 713 q 477 648 334 678 q 713 515 650 599 q 757 358 757 444 q 610 60 757 192 q 420 0 526 0 l 320 0 q 73 73 124 0 q 0 298 0 164 l 0 358 q 5 363 1 363 l 239 363 l 266 366 l 269 361 l 269 350 q 374 206 269 206 l 380 206 q 477 274 453 206 l 477 301 q 285 401 477 357 q 68 662 68 476 q 179 901 68 800 q 486 971 463 971 z "},"T":{"ha":806,"x_min":0,"x_max":806,"o":"m 33 971 l 800 971 q 806 966 806 970 q 795 922 806 922 l 3 724 q 0 727 3 727 q 33 971 25 971 m 792 854 q 795 852 792 852 q 773 703 780 703 l 526 703 q 448 0 452 0 l 179 0 q 174 8 174 0 q 250 703 174 25 l 176 703 l 176 708 l 792 854 z "},"U":{"ha":863,"x_min":0,"x_max":863,"o":"m 339 971 q 345 966 345 970 q 279 350 279 382 l 279 334 l 282 320 q 11 252 277 317 q 0 342 5 252 q 71 971 64 971 l 339 971 m 591 971 l 857 971 q 863 966 863 970 q 803 450 808 461 l 524 380 l 521 385 q 586 968 583 960 l 591 971 m 798 399 l 800 399 q 732 179 780 257 q 548 14 665 64 q 502 0 513 0 l 228 0 q 73 90 153 0 q 16 214 16 170 l 298 279 q 372 241 326 241 l 399 241 q 513 334 471 241 q 798 399 788 399 z "},"V":{"ha":907,"x_min":0,"x_max":906,"o":"m 5 971 l 288 971 q 315 836 292 971 q 391 350 323 763 l 393 350 q 624 968 423 440 l 629 971 l 906 971 l 906 968 q 651 366 906 961 q 155 241 651 360 q 0 968 92 526 l 5 971 m 624 312 q 627 309 624 309 q 494 3 513 40 l 488 0 l 212 0 q 174 155 201 0 q 163 198 171 155 q 624 312 202 212 z "},"W":{"ha":1151,"x_min":0,"x_max":1153,"o":"m 5 971 l 133 971 l 133 966 q 5 936 127 966 q 0 958 0 946 l 0 966 q 5 971 1 971 m 700 971 q 719 863 711 971 q 762 524 722 863 l 768 524 q 890 971 865 899 l 1147 971 q 1153 966 1153 970 q 863 0 868 7 l 602 0 q 567 252 594 0 l 529 529 l 526 529 q 345 3 513 481 l 339 0 l 84 0 q 71 100 71 0 q 8 865 65 141 q 266 930 20 871 q 271 920 271 924 q 290 521 271 892 l 293 521 q 450 971 445 964 l 700 971 z "},"X":{"ha":1002,"x_min":0,"x_max":1001,"o":"m 136 971 l 434 971 q 502 800 442 971 q 543 705 537 711 q 697 968 682 947 l 703 971 l 1001 971 q 694 502 1001 958 q 846 163 836 193 l 846 160 l 570 92 q 491 279 556 117 l 486 279 q 326 30 354 64 q 179 0 211 0 l 0 0 q 165 250 0 12 l 336 507 q 130 968 144 932 l 136 971 m 863 127 q 920 3 876 107 l 914 0 l 610 0 q 583 60 603 0 l 863 127 z "},"Y":{"ha":772,"x_min":0,"x_max":920,"o":"m 0 971 l 304 971 q 426 675 312 971 q 610 968 437 687 l 616 971 l 914 971 q 920 966 920 970 q 537 401 568 451 q 526 342 532 342 q 247 274 335 293 q 244 277 247 277 l 258 404 q 0 968 0 962 l 0 971 m 521 290 l 524 285 q 491 0 496 25 l 220 0 q 214 5 214 0 q 244 228 236 228 q 521 290 252 228 z "},"Z":{"ha":878,"x_min":0,"x_max":876,"o":"m 155 971 l 255 971 l 255 966 q 149 941 155 941 q 146 949 146 947 q 155 971 149 971 m 572 971 l 871 971 q 876 963 876 971 q 849 751 857 751 q 374 239 398 268 l 808 239 l 814 236 q 784 0 789 0 l 5 0 l 0 3 q 30 228 22 216 q 499 732 66 264 l 130 732 q 125 738 125 732 q 146 873 134 873 q 572 971 556 971 z "},"[":{"ha":494,"x_min":0,"x_max":488,"o":"m 127 1120 l 483 1120 q 488 1115 488 1120 q 472 1028 484 1028 l 109 958 l 106 963 q 127 1120 120 1120 m 469 958 q 472 955 469 955 q 458 882 465 882 l 331 882 l 250 130 l 374 130 q 380 125 380 130 q 361 0 370 0 l 5 0 l 0 3 q 100 892 95 886 l 469 958 z "},"]":{"ha":494,"x_min":0,"x_max":488,"o":"m 127 1120 l 483 1120 q 488 1115 488 1120 q 323 1080 488 1106 q 117 1039 279 1069 l 114 1044 q 127 1120 120 1120 m 477 1036 l 480 1031 q 363 0 369 12 l 5 0 q 0 5 0 0 q 19 130 11 130 l 141 130 q 171 372 149 130 q 228 882 174 373 l 103 882 q 98 887 98 882 q 119 971 98 971 l 477 1036 z "},"^":{"ha":648,"x_min":0,"x_max":646,"o":"m 467 1157 q 515 1016 471 1155 q 190 951 515 1011 q 298 1157 200 982 l 467 1157 m 534 951 l 646 606 l 640 604 l 420 604 q 380 766 414 604 q 355 878 355 872 q 231 606 345 864 l 225 604 l 5 604 q 0 609 0 604 q 146 878 4 610 q 534 951 146 885 z "},"_":{"ha":624,"x_min":0,"x_max":613,"o":"m 160 -134 l 608 -134 q 613 -140 613 -135 q 597 -237 605 -237 l 5 -237 l 0 -235 q 14 -156 7 -156 q 160 -134 132 -134 z "},"a":{"ha":758,"x_min":0,"x_max":841,"o":"m 678 971 q 727 751 685 971 q 833 247 808 380 q 472 155 572 174 l 315 155 q 263 98 307 98 q 98 57 119 57 l 0 57 q 293 743 9 86 q 393 971 382 951 l 678 971 m 496 643 q 404 393 491 623 l 537 393 q 499 643 529 431 l 496 643 m 798 193 q 841 3 803 193 l 836 0 l 534 0 q 518 122 527 0 q 798 193 531 127 z "},"b":{"ha":739,"x_min":0,"x_max":811,"o":"m 545 971 q 776 879 728 971 q 811 743 811 827 l 811 741 q 808 738 811 738 q 811 735 808 735 q 692 578 811 644 q 244 461 663 562 q 46 410 239 458 q 43 412 46 412 q 109 971 103 964 l 545 971 m 361 743 l 345 605 l 445 605 q 532 692 532 605 q 469 743 532 743 l 361 743 m 618 499 q 746 439 669 499 q 800 326 800 385 q 635 35 800 132 q 404 0 526 0 l 5 0 q 0 5 0 0 q 41 358 35 358 q 618 499 608 499 m 320 391 l 320 388 q 304 239 320 360 l 426 239 q 524 331 524 239 q 426 391 524 391 l 320 391 z "},"c":{"ha":825,"x_min":0,"x_max":868,"o":"m 526 1050 l 586 1050 q 779 998 691 1050 l 779 996 l 100 825 l 98 825 l 98 827 q 526 1050 239 1050 m 735 909 q 803 854 785 873 q 868 665 868 779 q 865 600 865 604 l 860 597 l 578 597 q 564 665 572 597 q 456 749 532 749 q 288 540 324 749 q 279 437 279 463 l 279 396 q 393 252 279 252 q 529 350 486 252 l 534 353 l 792 353 l 798 350 q 716 171 785 289 q 377 0 602 0 q 62 155 143 0 q 0 388 0 260 l 0 420 q 73 751 0 595 q 735 909 80 751 z "},"d":{"ha":815,"x_min":0,"x_max":822,"o":"m 111 971 l 467 971 q 754 852 685 971 q 819 648 819 748 q 545 578 819 644 q 534 643 541 584 q 448 716 505 716 q 401 722 448 721 l 355 722 q 331 524 336 524 l 52 453 l 49 458 q 106 968 103 958 l 111 971 m 819 589 l 822 583 l 822 575 q 765 258 822 418 q 363 0 652 0 l 5 0 q 0 5 0 0 q 46 404 40 404 l 326 472 q 328 469 326 469 l 304 250 l 328 250 q 483 296 460 250 q 537 486 517 326 q 553 526 537 526 q 819 589 789 583 z "},"e":{"ha":724,"x_min":0,"x_max":795,"o":"m 111 971 l 255 971 l 255 966 q 100 930 114 930 q 111 971 103 971 m 572 971 l 789 971 q 795 963 795 971 q 765 732 774 732 l 358 732 q 345 624 347 635 l 722 624 q 727 618 727 623 q 703 396 711 448 l 320 396 q 304 250 315 332 l 724 250 l 730 247 q 700 0 705 19 l 5 0 q 0 5 0 0 q 95 860 76 724 q 572 971 540 968 z "},"f":{"ha":739,"x_min":0,"x_max":741,"o":"m 109 971 l 735 971 q 741 966 741 970 q 711 732 719 732 l 355 732 q 342 608 342 623 l 643 608 q 648 602 648 607 q 624 382 648 578 l 320 382 q 301 231 313 382 q 279 117 289 117 l 3 49 q 0 52 3 52 l 103 968 l 109 971 m 320 79 q 307 0 316 0 l 35 0 l 35 11 q 317 81 35 19 q 320 79 320 81 z "},"g":{"ha":863,"x_min":0,"x_max":863,"o":"m 467 971 l 551 971 q 803 857 736 971 q 54 670 803 852 l 54 673 q 467 971 189 971 m 836 825 q 863 703 863 743 l 591 646 l 575 694 q 529 749 575 713 q 678 787 529 755 q 836 825 709 798 m 355 711 l 358 705 q 293 567 318 673 q 279 431 279 489 l 279 418 q 372 247 279 277 q 407 241 396 241 l 437 241 q 578 293 491 241 q 583 353 578 304 l 420 353 l 420 355 q 448 583 440 583 l 852 583 l 857 581 l 808 155 q 420 0 604 0 l 353 0 q 27 228 113 0 q 0 391 0 319 l 0 415 q 30 629 0 529 q 355 711 35 635 z "},"h":{"ha":897,"x_min":0,"x_max":898,"o":"m 377 971 q 382 966 382 970 q 347 646 355 705 l 586 646 l 586 648 q 621 968 608 868 l 627 971 l 892 971 q 898 966 898 970 q 865 703 873 703 l 57 502 l 54 507 q 109 971 103 965 l 377 971 m 860 643 l 863 637 q 792 3 817 210 l 787 0 l 521 0 q 515 5 515 0 q 556 377 518 56 l 317 377 q 274 0 279 0 l 5 0 q 0 5 0 0 q 49 448 33 322 q 860 643 180 483 z "},"i":{"ha":350,"x_min":0,"x_max":347,"o":"m 76 955 l 342 955 q 347 949 347 954 q 285 391 288 397 q 3 320 281 388 q 0 323 3 323 q 71 952 65 920 l 76 955 m 331 358 l 334 353 q 293 0 298 9 l 19 0 l 19 3 q 54 293 45 293 l 331 358 z "},"j":{"ha":743,"x_min":0,"x_max":743,"o":"m 472 971 l 738 971 q 743 966 743 970 q 651 241 681 342 q 613 201 643 201 q 73 65 606 198 q 3 236 28 102 q 0 271 3 262 q 3 274 0 274 l 0 290 q 8 353 0 353 l 274 393 q 271 312 271 339 l 271 301 q 317 239 271 246 l 320 239 q 401 382 389 239 q 467 968 461 943 l 472 971 m 651 176 q 654 174 651 174 q 472 16 603 72 q 374 0 415 0 l 317 0 q 144 52 206 0 q 651 176 163 60 z "},"k":{"ha":964,"x_min":0,"x_max":963,"o":"m 114 971 l 380 971 q 385 966 385 970 q 350 654 353 663 l 353 654 q 624 971 612 962 l 949 971 q 963 939 958 971 l 643 597 q 887 3 887 9 l 882 0 l 553 0 q 521 87 545 0 q 429 369 437 334 l 426 369 q 304 233 304 242 q 274 0 282 0 l 5 0 l 0 3 q 109 968 103 936 l 114 971 z "},"l":{"ha":690,"x_min":0,"x_max":689,"o":"m 426 971 q 431 966 431 970 q 412 817 418 817 l 133 746 l 130 751 q 157 971 152 964 l 426 971 m 358 751 q 361 749 358 749 q 307 269 358 738 l 689 269 l 689 266 q 656 0 666 0 l 5 0 q 0 5 0 0 q 76 686 71 665 l 358 751 z "},"m":{"ha":1000,"x_min":0,"x_max":998,"o":"m 418 971 q 445 762 428 971 q 469 548 448 762 q 271 496 469 543 q 263 564 269 502 l 260 564 q 241 488 256 488 l 14 431 q 11 434 14 434 q 73 971 68 954 l 418 971 m 993 971 q 998 966 998 970 q 963 667 968 675 q 513 556 955 667 l 513 559 q 648 971 637 951 l 993 971 m 958 605 q 890 0 895 0 l 665 0 q 659 5 659 0 q 722 553 716 553 q 958 608 948 608 l 958 605 m 711 548 l 711 545 q 532 3 545 39 l 526 0 l 328 0 q 312 122 321 0 q 279 412 309 127 l 277 412 q 231 8 236 8 l 5 8 q 0 14 0 8 q 43 391 38 378 q 475 494 108 404 l 477 488 l 477 469 l 483 469 q 537 507 483 507 q 711 548 691 548 z "},"n":{"ha":946,"x_min":0,"x_max":947,"o":"m 404 971 q 491 798 410 969 l 575 613 q 106 494 566 608 l 103 499 q 157 971 152 971 l 404 971 m 941 971 q 947 966 947 970 q 914 694 919 694 q 648 629 906 694 q 646 632 648 632 q 686 971 681 960 l 941 971 m 863 635 l 863 632 q 792 3 860 623 l 787 0 l 540 0 q 415 260 528 9 q 317 464 410 262 q 296 290 311 464 q 260 0 266 31 l 5 0 q 0 5 0 0 q 49 442 43 425 q 551 562 543 562 q 581 499 567 535 l 583 499 q 602 575 583 575 q 863 635 845 635 z "},"o":{"ha":868,"x_min":0,"x_max":868,"o":"m 469 971 l 526 971 q 836 776 758 971 q 868 581 868 695 l 868 578 q 849 464 868 464 l 572 393 l 570 399 q 589 562 589 494 l 589 570 q 502 724 589 694 q 469 730 483 730 l 453 730 q 285 502 318 730 q 279 418 279 453 l 279 404 q 288 326 279 370 q 16 255 283 320 q 0 380 0 302 l 0 404 q 157 854 0 671 q 334 955 267 955 q 469 971 395 971 m 849 415 q 852 412 849 412 q 711 117 804 202 q 412 0 606 0 l 355 0 q 119 68 227 0 q 27 217 39 157 q 309 285 300 285 q 401 239 342 239 l 412 239 q 553 345 507 239 l 849 415 z "},"p":{"ha":614,"x_min":0,"x_max":784,"o":"m 483 971 q 703 922 651 971 q 784 727 784 857 l 784 705 q 637 399 784 509 q 442 347 556 347 l 317 347 q 279 3 282 7 l 274 0 l 5 0 l 0 3 q 109 971 103 939 l 483 971 m 361 743 q 342 572 361 719 l 385 572 q 510 670 510 572 q 420 743 510 743 l 361 743 z "},"q":{"ha":868,"x_min":0,"x_max":868,"o":"m 486 967 q 762 883 611 967 l 762 880 q 68 704 751 875 l 65 709 q 187 875 88 777 q 396 959 274 940 q 486 967 422 964 m 808 823 q 868 590 868 730 l 868 571 q 749 156 868 326 l 749 151 q 852 83 816 97 l 852 80 q 749 -115 844 50 q 581 18 692 -86 q 377 -7 519 -7 q 71 121 178 -7 q 0 384 0 231 l 0 389 q 54 644 14 644 l 808 823 m 279 403 q 410 232 279 232 q 342 275 399 245 l 342 281 q 410 408 401 408 q 548 327 460 408 q 589 560 589 431 q 458 726 589 726 q 285 490 316 726 l 279 403 z "},"r":{"ha":825,"x_min":0,"x_max":819,"o":"m 502 971 q 779 879 740 971 q 819 738 819 820 q 673 450 819 551 q 629 429 637 429 q 711 315 675 393 q 719 285 719 290 q 429 212 714 279 q 361 363 379 350 q 309 380 338 380 l 309 377 q 282 174 290 174 q 0 106 16 106 q 98 971 92 947 l 502 971 m 350 743 l 334 594 l 420 594 q 534 686 534 594 l 534 689 q 458 743 534 743 l 350 743 m 732 244 q 811 5 811 19 l 811 0 l 505 0 q 442 174 491 14 l 442 176 l 732 244 m 326 144 q 328 141 326 141 q 309 8 315 8 l 38 8 l 33 11 q 52 79 37 79 q 326 144 317 144 z "},"s":{"ha":767,"x_min":0,"x_max":768,"o":"m 486 971 l 505 971 q 730 868 675 971 q 768 705 768 801 l 768 659 q 762 654 768 654 l 507 654 q 502 659 502 654 l 502 662 q 410 776 502 776 q 334 722 334 768 l 334 713 q 477 648 334 678 q 713 515 650 599 q 757 358 757 444 q 610 60 757 192 q 420 0 526 0 l 320 0 q 73 73 124 0 q 0 298 0 164 l 0 358 q 5 363 1 363 l 239 363 l 266 366 l 269 361 l 269 350 q 374 206 269 206 l 380 206 q 477 274 453 206 l 477 301 q 285 401 477 357 q 68 662 68 476 q 179 901 68 800 q 486 971 463 971 z "},"t":{"ha":806,"x_min":0,"x_max":806,"o":"m 33 971 l 800 971 q 806 966 806 970 q 795 922 806 922 l 3 724 q 0 727 3 727 q 33 971 25 971 m 792 854 q 795 852 792 852 q 773 703 780 703 l 526 703 q 448 0 452 0 l 179 0 q 174 8 174 0 q 250 703 174 25 l 176 703 l 176 708 l 792 854 z "},"u":{"ha":863,"x_min":0,"x_max":863,"o":"m 339 971 q 345 966 345 970 q 279 350 279 382 l 279 334 l 282 320 q 11 252 277 317 q 0 342 5 252 q 71 971 64 971 l 339 971 m 591 971 l 857 971 q 863 966 863 970 q 803 450 808 461 l 524 380 l 521 385 q 586 968 583 960 l 591 971 m 798 399 l 800 399 q 732 179 780 257 q 548 14 665 64 q 502 0 513 0 l 228 0 q 73 90 153 0 q 16 214 16 170 l 298 279 q 372 241 326 241 l 399 241 q 513 334 471 241 q 798 399 788 399 z "},"v":{"ha":907,"x_min":0,"x_max":906,"o":"m 5 971 l 288 971 q 315 836 292 971 q 391 350 323 763 l 393 350 q 624 968 423 440 l 629 971 l 906 971 l 906 968 q 651 366 906 961 q 155 241 651 360 q 0 968 92 526 l 5 971 m 624 312 q 627 309 624 309 q 494 3 513 40 l 488 0 l 212 0 q 174 155 201 0 q 163 198 171 155 q 624 312 202 212 z "},"w":{"ha":1151,"x_min":0,"x_max":1153,"o":"m 5 971 l 133 971 l 133 966 q 5 936 127 966 q 0 958 0 946 l 0 966 q 5 971 1 971 m 700 971 q 719 863 711 971 q 762 524 722 863 l 768 524 q 890 971 865 899 l 1147 971 q 1153 966 1153 970 q 863 0 868 7 l 602 0 q 567 252 594 0 l 529 529 l 526 529 q 345 3 513 481 l 339 0 l 84 0 q 71 100 71 0 q 8 865 65 141 q 266 930 20 871 q 271 920 271 924 q 290 521 271 892 l 293 521 q 450 971 445 964 l 700 971 z "},"x":{"ha":1002,"x_min":0,"x_max":1001,"o":"m 136 971 l 434 971 q 502 800 442 971 q 543 705 537 711 q 697 968 682 947 l 703 971 l 1001 971 q 694 502 1001 958 q 846 163 836 193 l 846 160 l 570 92 q 491 279 556 117 l 486 279 q 326 30 354 64 q 179 0 211 0 l 0 0 q 165 250 0 12 l 336 507 q 130 968 144 932 l 136 971 m 863 127 q 920 3 876 107 l 914 0 l 610 0 q 583 60 603 0 l 863 127 z "},"y":{"ha":772,"x_min":0,"x_max":920,"o":"m 0 971 l 304 971 q 426 675 312 971 q 610 968 437 687 l 616 971 l 914 971 q 920 966 920 970 q 537 401 568 451 q 526 342 532 342 q 247 274 335 293 q 244 277 247 277 l 258 404 q 0 968 0 962 l 0 971 m 521 290 l 524 285 q 491 0 496 25 l 220 0 q 214 5 214 0 q 244 228 236 228 q 521 290 252 228 z "},"z":{"ha":878,"x_min":0,"x_max":876,"o":"m 155 971 l 255 971 l 255 966 q 149 941 155 941 q 146 949 146 947 q 155 971 149 971 m 572 971 l 871 971 q 876 963 876 971 q 849 751 857 751 q 374 239 398 268 l 808 239 l 814 236 q 784 0 789 0 l 5 0 l 0 3 q 30 228 22 216 q 499 732 66 264 l 130 732 q 125 738 125 732 q 146 873 134 873 q 572 971 556 971 z "},"{":{"ha":513,"x_min":0,"x_max":515,"o":"m 239 1120 l 510 1120 q 515 1115 515 1120 q 491 933 498 933 l 445 933 q 374 776 382 933 q 326 602 360 656 q 274 548 309 576 l 274 545 q 328 415 328 508 l 328 393 l 317 220 l 317 206 q 374 165 317 165 l 404 165 q 410 160 410 165 q 391 100 410 100 l 84 41 q 76 98 76 57 l 76 122 q 95 339 76 155 q 24 420 95 420 l 8 420 l 0 426 q 30 678 24 645 l 52 678 q 136 746 119 678 q 168 974 146 791 q 239 1120 196 1086 m 396 60 l 399 54 q 388 0 396 0 l 100 0 l 100 5 q 396 60 228 30 z "},"}":{"ha":513,"x_min":0,"x_max":513,"o":"m 127 1120 l 399 1120 q 437 996 437 1078 l 437 987 q 420 762 437 951 l 420 749 q 491 678 420 678 l 507 678 q 513 673 513 677 q 480 420 488 431 l 464 420 q 380 363 397 420 q 358 250 366 321 q 125 206 132 206 l 122 212 q 168 458 145 389 q 239 551 179 496 q 184 697 184 589 l 195 882 q 152 933 195 933 l 109 933 q 103 939 103 933 q 127 1120 119 1120 m 353 201 l 355 195 q 315 30 342 87 q 293 0 296 0 l 5 0 q 0 5 0 0 q 19 141 12 141 l 353 201 z "}}}
